PathFileType	4	(X/Y/Z)	6_1_26_p0_0-597_filt_butterworth.trc
DataRate	CameraRate	NumFrames	NumMarkers	Units	OrigDataRate	OrigDataStartFrame	OrigNumFrames
59.0	59.0	5	27	m	59.0	74	597
Frame#	Time	RHip			RKnee			RAnkle			RBigToe			RSmallToe			RHeel			LHip			LKnee			LAnkle			LBigToe			LSmallToe			LHeel			Neck			Head			Nose			RShoulder			RElbow			RWrist			RThumb			RIndex			RPinky			LShoulder			LElbow			LWrist			LThumb			LIndex			LPinky			
		X1	Y1	Z1	X2	Y2	Z2	X3	Y3	Z3	X4	Y4	Z4	X5	Y5	Z5	X6	Y6	Z6	X7	Y7	Z7	X8	Y8	Z8	X9	Y9	Z9	X10	Y10	Z10	X11	Y11	Z11	X12	Y12	Z12	X13	Y13	Z13	X14	Y14	Z14	X15	Y15	Z15	X16	Y16	Z16	X17	Y17	Z17	X18	Y18	Z18	X19	Y19	Z19	X20	Y20	Z20	X21	Y21	Z21	X22	Y22	Z22	X23	Y23	Z23	X24	Y24	Z24	X25	Y25	Z25	X26	Y26	Z26	X27	Y27	Z27	
74	1.2542372881355932	0.2082223107414631	0.9508529536955854	0.4040341633350304	0.2317297903914149	0.5425022190461806	0.5154285081361004	0.2665805285044343	0.1619396899960723	0.5750830615254142	0.2724769529335749	0.14733574212470982	0.3493979075411468	0.33472607858598813	0.1232750188176358	0.44460649932016816	0.25577851612143504	0.09861349934601221	0.6225155167741263	0.0054214075423796165	0.9295872991906057	0.38518166844989327	0.04048570525396379	0.5434234205924351	0.4578980691502465	0.0905510159098515	0.14507704239645391	0.5332890977407043	0.1094471049158027	0.08947545804595994	0.41011578650102615	0.05822548500959243	0.13488161520173572	0.38503068117843176	0.10434834009842202	0.07132678609149554	0.6352773778562352	0.04775184947363731	1.5722296684340447	0.36347578586034796	0.03953836381336956	1.828336586969719	0.2514758118040307	0.043722909341026184	1.675279930502961	0.22174026596155694	0.2145143259192649	1.4943000239334452	0.3889888531508518	0.29684135296602865	1.2141200129534755	0.4966526486911644	0.2780904081972481	1.0071467134173477	0.3535262448225192	0.20543949274101436	0.9126331663067091	0.30290456953720307	0.22284996334695417	0.8490031604883755	0.3056910673527751	0.27773289360699643	0.8194244750628998	0.4121000133794265	-0.1092257771544719	1.4715541420581928	0.32722304730178775	-0.18870205372695642	1.2174142400600907	0.35858104298689836	-0.05876744613336211	1.024767260627816	0.2687604526303405	0.03242425402523917	0.970718696045	0.234587043290101	0.03593113906236312	0.9437856207936569	0.20086276991204985	-0.0195063220951544	0.9084089530398011	0.23978699091078326	
75	1.271186440677966	0.20685594139649388	0.9514849173493917	0.4042873452721667	0.23129244779387706	0.5430999049834495	0.5136334538455056	0.2664096453038375	0.16168226088127288	0.5748375747234339	0.2724235145123098	0.14849121800866422	0.34854587226116707	0.3350145427534841	0.1222776763438739	0.4448931178531135	0.2558156331855111	0.09838401442475271	0.6227106373082807	0.004057565714903677	0.9301862430410525	0.3844225942536587	0.04026113634474107	0.5434264807616589	0.4579685347638828	0.09058019869533608	0.14455285652851763	0.5328235612562228	0.10994677375426251	0.0907416702781246	0.4088201080156566	0.05838049943393017	0.13504493307399904	0.383964328190861	0.10411234115100701	0.07074287609341458	0.6354279566990342	0.046142686244941486	1.5702744637408086	0.363444493120427	0.037034956555085034	1.826147350658202	0.24600035160676387	0.04353788191251655	1.6741897566857886	0.21935772996322625	0.2139245101446055	1.4936577106858804	0.38850189443850325	0.2955133854698374	1.2140750511420886	0.49861664962776175	0.27822398532665965	1.007342969839956	0.35305794971361093	0.20539092869311876	0.911675118191592	0.30333109681160714	0.22168927185545628	0.8507976299929269	0.30286314880134796	0.2775993084731093	0.820199602117009	0.41203116467085027	-0.10991252252635939	1.4709836625076278	0.3271283088818018	-0.1906006581124729	1.218306562331276	0.3604910241576301	-0.056256540088991135	1.0391246072967468	0.2577288666894055	0.036184790561671024	0.9871946661597134	0.22045956307958864	0.03911653746923782	0.9644678222043996	0.19032733609724156	-0.013800352590207893	0.9281798990363355	0.2233249176849434	
76	1.2881355932203389	0.20547700092672547	0.9523163308183391	0.40472427921711873	0.2309065802948613	0.5436623393593449	0.5121420838154485	0.266186400025379	0.16144638756110902	0.5745787150202537	0.2722127495245802	0.14979194644807725	0.34735725723073274	0.33534151164640175	0.12099763490728424	0.44508537170211027	0.2558132451385169	0.09812269136619808	0.6228956792998372	0.0029046851168907967	0.9310488714985482	0.3831648464269111	0.04000701657017071	0.5433262015671761	0.45837597255673884	0.09062565260544718	0.14413796551547692	0.5324983740824679	0.11022054442529775	0.09192630203810455	0.4084505507360531	0.05838026226789329	0.13491359067356418	0.3836137834729613	0.10398656317843628	0.07031737745367451	0.6355524421248424	0.04424252007149067	1.5680574067307298	0.36353026175310554	0.03480563480084967	1.823963429521795	0.2410843364489623	0.043273498741350974	1.6731247744001587	0.21716330412567567	0.21326523692531182	1.4928263012022198	0.38793275263662463	0.29438545569271124	1.2138808973744726	0.4996087667581243	0.27827785501724817	1.007743678708876	0.3528156622846916	0.20548956737655227	0.9108285878159204	0.3039142672686214	0.22089548077604035	0.8522462278977964	0.3003946414251743	0.2774725715227019	0.8205234907744933	0.41210967186169006	-0.11046036140117485	1.4702159680781228	0.32703925967145175	-0.19249738191019064	1.2192933694511534	0.36109492689166667	-0.05409520325000601	1.0546039738714807	0.247424476981573	0.03896640409377409	1.0070221890206568	0.20711883010329227	0.04064112354300655	0.9872470889860057	0.18109070802458516	-0.007090524789909991	0.951751170228783	0.2041988984386836	
77	1.305084745762712	0.20400594226088095	0.9532668459011889	0.40539325664857984	0.23060759687055332	0.5440906362821437	0.5110885995760536	0.2659135226629405	0.16123965676244972	0.5743093834366553	0.2719693891536713	0.15099945046702157	0.3462918479310223	0.33566940423024594	0.11962205540721504	0.44516498848721103	0.2557863415794245	0.09788028816275496	0.6229279051038156	0.0020288756145559013	0.9320853265002463	0.38142253876695315	0.03975734899836864	0.5431518365969468	0.4590371176013248	0.09065784060910756	0.14384325999570854	0.532437398219007	0.11027113584460158	0.0930090632997258	0.40865046958327644	0.058342766546591804	0.13454881726438414	0.3836675239272644	0.1039680976686374	0.07006299702359062	0.6356437377347538	0.04216929164800801	1.5652281021327736	0.3637967848082507	0.03280044389312581	1.8218552772436034	0.23728529517164432	0.04274047549621375	1.6718006182940401	0.21540782057387226	0.21235477456554122	1.4920146975081594	0.38737067249425466	0.29331837412589834	1.2136975843463775	0.499345232714002	0.2778637442117401	1.008276076896854	0.3540937922632664	0.20571396996953062	0.9105201513209059	0.30458492894430433	0.22049649573872798	0.8538888502805355	0.29860002706170763	0.2773595738679075	0.820703210825458	0.41222557511933	-0.11082135334687288	1.4693198444270503	0.3265703779490794	-0.19422878509177782	1.22046947605299	0.35987981049896706	-0.05251651230403946	1.071556887786079	0.23779472747672825	0.04072012785499797	1.0302414752205813	0.1952714082023379	0.04096978837003276	1.0128312898796554	0.17234401721617093	-0.00028219992257398033	0.9786106874455416	0.18420842062439732	
78	1.3220338983050848	0.20238569324760194	0.9543253847391693	0.40619854548481493	0.23043822562993835	0.5443662942422535	0.5103901751023547	0.26561828212958594	0.16106785598733098	0.5740463112017968	0.27183270788410385	0.1518813918093524	0.3458063655328122	0.3359539911839616	0.1183927401050746	0.44516307526611165	0.255731844290145	0.09777073875708835	0.6227321331471068	0.001362288663238889	0.9332507865029577	0.379274188937424	0.03947849528955554	0.5428945115561296	0.45996644461569225	0.0906407410487259	0.14371137904236042	0.5326639677740284	0.11023396638728739	0.09383918067195694	0.40892922537326476	0.05841596387581435	0.13390568728767568	0.3837275806100242	0.10400620097629808	0.06994466273231635	0.6357010295932096	0.039932955234749185	1.5615119599366165	0.36423813354656864	0.030964064749850414	1.8197641563007292	0.23493815676899457	0.041995378878899065	1.6699230330451882	0.21394109881287365	0.21107557092372237	1.4914165979701612	0.38690609503215767	0.29216607260897726	1.213930739178257	0.4978134752789379	0.2768286414440416	1.0088842295136806	0.3574413987074707	0.20601276279374964	0.9111574231908491	0.30524361614375106	0.22041657682746277	0.8560370050386158	0.2976889049997734	0.2772679715764323	0.8212168277734374	0.4123413127595052	-0.11101890528650568	1.468437437158697	0.32540833080240134	-0.19574822621628585	1.2219274718681676	0.3567592027435109	-0.051554196389875684	1.0902990725653894	0.22765113801796766	0.04170979969318998	1.0569100398454943	0.18449272944472034	0.040741724073502815	1.0417589527974942	0.16342054965448286	0.005860652007764941	1.0082735332232362	0.16471553346020307	
